<?xml version="1.0" encoding="utf-8"?>
<!-- Generator: Adobe Illustrator 25.3.1, SVG Export Plug-In . SVG Version: 6.00 Build 0)  -->
<svg version="1.1" id="Layer_1" xmlns="http://www.w3.org/2000/svg" xmlns:xlink="http://www.w3.org/1999/xlink" x="0px" y="0px"
	 viewBox="0 0 200 75" style="enable-background:new 0 0 200 75;" xml:space="preserve">
<style type="text/css">
	.st0{fill:#9AD9F6;}
	.st1{fill:#FFFFFF;}
	.st2{fill:#DA5928;}
	.st3{fill:#75523A;}
</style>
<path class="st0" d="M141.9,18.9c0,10.4-8.4,18.9-18.7,18.9s-18.7-8.5-18.7-18.9S112.9,0,123.2,0S141.9,8.5,141.9,18.9"/>
<path class="st1" d="M135.8,15.8c0,8.6-6.9,15.5-15.4,15.5s-15.4-7-15.4-15.5c0-8.6,6.9-15.5,15.4-15.5S135.8,7.2,135.8,15.8"/>
<path class="st2" d="M132.8,20.8c-2.9,6.8-10.8,10-17.6,7.1c-6.8-2.9-9.9-10.8-6.9-17.6c2.9-6.8,10.8-10,17.6-7.1
	C132.6,6.1,135.7,14,132.8,20.8"/>
<path class="st1" d="M131.9,22.8c-2.5,5.7-9.1,8.4-14.7,5.9s-8.3-9.1-5.8-14.8c2.5-5.7,9.1-8.4,14.7-5.9
	C131.8,10.5,134.4,17.1,131.9,22.8"/>
<path class="st3" d="M131.6,19.7c0,4.2-3.4,7.6-7.6,7.6c-4.2,0-7.6-3.4-7.6-7.6c0-4.2,3.4-7.6,7.6-7.6
	C128.2,12.1,131.6,15.5,131.6,19.7"/>
<g>
	<path class="st1" d="M191.8,43.6h3c0.5,0,0.9,0.1,1.2,0.2c0.6,0.3,0.9,0.8,0.9,1.6c0,0.4-0.1,0.7-0.2,1s-0.4,0.5-0.7,0.6
		c0.3,0.1,0.5,0.2,0.6,0.4c0.1,0.2,0.2,0.5,0.2,0.8l0,0.9c0,0.3,0,0.4,0.1,0.6l0.3,0.4v0.1h-1.1L196,50c0-0.1,0-0.3,0-0.5l-0.1-1.1
		c0-0.4-0.2-0.7-0.5-0.9c-0.2-0.1-0.4-0.1-0.8-0.1h-2v2.9h-0.9L191.8,43.6L191.8,43.6z M194.7,46.6c0.4,0,0.7-0.1,1-0.3
		c0.2-0.2,0.4-0.5,0.4-0.9c0-0.5-0.2-0.8-0.5-1c-0.2-0.1-0.4-0.1-0.7-0.1h-2.1v2.3L194.7,46.6L194.7,46.6z"/>
	<path class="st1" d="M194.3,41.5c-3,0-5.5,2.5-5.5,5.5c0,3,2.5,5.5,5.5,5.5c3,0,5.5-2.5,5.5-5.5C199.8,43.9,197.3,41.5,194.3,41.5
		 M194.3,51.8c-2.6,0-4.8-2.1-4.8-4.8c0-2.6,2.1-4.8,4.8-4.8c2.7,0,4.8,2.1,4.8,4.8C199.1,49.6,196.9,51.8,194.3,51.8L194.3,51.8z"
		/>
</g>
<path class="st1" d="M18.4,58.4c-0.4-2.1-1.1-3.4-2.1-3.9c-0.5-0.2-2.1-0.3-4.6-0.3v16.6c0,1.2,0.2,2,0.6,2.3s1.3,0.5,2.5,0.5v0.9
	H4.9v-0.9c1,0,1.7-0.1,2.1-0.3c0.7-0.3,1-0.9,1-1.7V54.2H7.7c-2.4,0-3.9,0.1-4.5,0.4c-0.9,0.5-1.6,1.7-2,3.8H0.2l0.2-5.9h18.7
	l0.2,5.9L18.4,58.4L18.4,58.4z M28.7,54c-1.1,0-1.7,0.3-1.7,0.9V63c5,0,7.5-1.5,7.5-4.6C34.5,55.4,32.6,54,28.7,54 M36.9,74.5
	l-8.2-10.1H27v4.7c0,2.3,0.2,3.6,0.6,4c0.4,0.3,1.2,0.5,2.4,0.6v0.9h-9.3v-0.9c1.8,0,2.7-0.7,2.7-2.1V55.4c0-0.9-0.3-1.5-0.8-1.7
	l-1.9-0.4v-0.8h9.7c2,0,3.7,0.4,5.1,1.2c1.9,1,2.8,2.4,2.8,4.2c0,3.2-1.9,5.3-5.8,6.1l5.4,6.7l1.7,2.1c0.7,0.6,1.4,0.9,2.3,0.9v0.9
	L36.9,74.5L36.9,74.5z M42.8,74.5v-0.9c1.1,0,1.9-0.1,2.3-0.3c0.6-0.3,0.9-1,0.9-2V55.7c0-1-0.3-1.6-0.9-2c-0.3-0.2-1.1-0.3-2.2-0.4
	v-0.8h9.9v0.8c-1.2,0.1-1.9,0.2-2.3,0.4c-0.6,0.3-0.9,1-0.9,2v15.6c0,1,0.3,1.7,0.9,2c0.4,0.2,1.2,0.3,2.3,0.3v0.9H42.8L42.8,74.5z
	 M62.2,54c-1.2,0-1.8,0.3-1.8,0.9v16.9c0,0.6,0.2,1,0.6,1.2c0.3,0.1,0.8,0.1,1.5,0.1l1.3-0.1c2.7-0.1,4.8-1,6.3-2.7
	c1.5-1.7,2.2-3.9,2.2-6.6c0-3.2-0.9-5.6-2.7-7.3S65.4,54,62.2,54 M64.1,74.5H53.9v-0.9c1,0,1.7-0.1,2.1-0.3c0.6-0.3,0.8-0.9,0.8-1.8
	v-16c0-0.9-0.3-1.5-0.9-1.7c-0.2-0.1-0.8-0.2-2-0.4v-0.8h9.7c3.7,0,6.7,1,8.9,3s3.3,4.9,3.3,8.6c0,3.2-1.2,5.8-3.6,7.7
	C70.1,73.6,67.4,74.5,64.1,74.5L64.1,74.5z M91.4,74.5v-0.9c1.1,0,1.9-0.2,2.3-0.5c0.4-0.3,0.6-1,0.6-2.1v-6.9h-9.7v7.1
	c0,0.9,0.3,1.6,0.8,1.9c0.4,0.3,1.1,0.4,2.2,0.4v0.9H78v-0.9c1,0,1.7-0.1,2.1-0.4c0.5-0.4,0.8-1,0.8-2.1V55.6c0-0.9-0.3-1.5-0.8-1.9
	c-0.3-0.1-1-0.3-2.1-0.4v-0.8h9.4v0.8c-1.1,0.1-1.8,0.3-2.1,0.4c-0.6,0.3-0.8,0.9-0.8,1.9v6.8h9.7v-6c0-1.3-0.1-2.1-0.4-2.4
	c-0.3-0.3-1.1-0.5-2.5-0.7v-0.8h9.4v0.8c-1.2,0.2-2,0.4-2.3,0.6c-0.4,0.3-0.7,1-0.7,2.2v15c0,1,0.2,1.7,0.7,2.1
	c0.4,0.3,1.2,0.5,2.3,0.5v0.9L91.4,74.5L91.4,74.5z M115.5,67.4v-3.4l-0.1-2c-1.8,0-3.5,0.5-5.1,1.5c-1.8,1.1-2.7,2.6-2.7,4.4
	c0,1,0.3,2,0.8,2.8c0.6,1,1.4,1.5,2.3,1.5c1.8,0,3.1-0.3,3.8-1C115.1,70.4,115.5,69.2,115.5,67.4 M123,72.6
	c-1.5,1.6-2.9,2.4-4.3,2.4c-2.1,0-3.2-1.2-3.3-3.6c-2.7,2.4-5,3.6-7.1,3.6c-1.5,0-2.8-0.6-3.7-1.7c-1-1.1-1.4-2.5-1.4-4.1
	c0-2.4,1.6-4.5,4.6-6.3c2.6-1.5,5.2-2.3,7.5-2.3l0.1-3.4c0-2.7-1.2-4.1-3.7-4.1c-0.8,0-1.6,0.2-2.2,0.6c-0.8,0.5-1.2,1.1-1.2,1.8
	c0,0.2,0,0.5,0.1,1c0.1,0.4,0.1,0.7,0.1,1c0,0.6-0.2,1-0.7,1.5s-1,0.6-1.5,0.6s-1.1-0.2-1.5-0.6s-0.6-0.9-0.6-1.5
	c0-1.8,0.9-3.1,2.8-4.2c1.6-0.9,3.3-1.3,5.2-1.3c4.8,0,7.2,2.3,7.2,6.9v11c0,1.5,0.5,2.3,1.5,2.3c0.7,0,1.4-0.3,2.2-1L123,72.6
	L123,72.6L123,72.6z M137.2,67.4v-3.4l-0.1-2c-1.8,0-3.5,0.5-5.1,1.5c-1.8,1.1-2.7,2.6-2.7,4.4c0,1,0.3,2,0.8,2.8
	c0.6,1,1.4,1.5,2.3,1.5c1.8,0,3.1-0.3,3.8-1C136.9,70.4,137.2,69.2,137.2,67.4 M144.8,72.6c-1.5,1.6-2.9,2.4-4.3,2.4
	c-2.1,0-3.2-1.2-3.3-3.6c-2.7,2.4-5,3.6-7.1,3.6c-1.5,0-2.8-0.6-3.7-1.7s-1.4-2.5-1.4-4.1c0-2.4,1.5-4.5,4.6-6.3
	c2.6-1.5,5.2-2.3,7.5-2.3l0.1-3.4c0-2.7-1.2-4.1-3.7-4.1c-0.8,0-1.6,0.2-2.3,0.6c-0.8,0.5-1.2,1.1-1.2,1.8c0,0.2,0,0.5,0.1,1
	s0.1,0.7,0.1,1c0,0.6-0.2,1-0.7,1.5c-0.4,0.4-1,0.6-1.5,0.6c-0.6,0-1.1-0.2-1.5-0.6c-0.4-0.4-0.6-0.9-0.6-1.5c0-1.8,0.9-3.1,2.8-4.2
	c1.6-0.9,3.3-1.3,5.2-1.3c4.8,0,7.2,2.3,7.2,6.9l0,11c0,1.5,0.5,2.3,1.5,2.3c0.7,0,1.4-0.3,2.1-1L144.8,72.6L144.8,72.6z
	 M163.6,58.4c-0.4-2.1-1.1-3.4-2.1-3.9c-0.5-0.2-2.1-0.3-4.6-0.3v16.6c0,1.2,0.2,2,0.6,2.3c0.4,0.3,1.3,0.5,2.5,0.5v0.9h-9.9v-0.9
	c1,0,1.7-0.1,2.1-0.3c0.7-0.3,1-0.9,1-1.7V54.2h-0.3c-2.4,0-3.9,0.1-4.5,0.4c-0.9,0.5-1.6,1.7-2,3.8h-1.1l0.2-5.9h18.7l0.2,5.9
	L163.6,58.4L163.6,58.4z M177.2,75c-2.5,0-4.6-0.6-6.1-1.9c-1.7-1.4-2.5-3.3-2.5-5.8V55.4c0-0.8-0.3-1.4-0.8-1.7
	c-0.3-0.1-1-0.3-2.1-0.4v-0.8h9.6v0.8c-1.3,0.2-2.1,0.4-2.4,0.6c-0.5,0.3-0.7,1.1-0.7,2.3v11c0,4.1,1.8,6.1,5.5,6.1
	c4.1,0,6.1-2,6.1-6V56.9c0-1.3-0.2-2.2-0.6-2.7c-0.4-0.5-1.2-0.8-2.5-0.9v-0.8h7.9v0.8l-1.4,0.3c-0.6,0.2-0.9,0.4-1.2,0.7
	c-0.3,0.4-0.5,1.3-0.5,2.6v10.2c0,2.5-0.8,4.5-2.3,5.8C181.9,74.4,179.8,75,177.2,75"/>
</svg>
