<svg xmlns="http://www.w3.org/2000/svg" width="200" height="75"><path fill="#9ad9f6" d="M141.928 18.877c0 10.426-8.375 18.875-18.7 18.875s-18.697-8.45-18.697-18.875S112.902 0 123.23 0s18.7 8.453 18.7 18.877"/><path fill="#fff" d="M135.76 15.803c0 8.582-6.893 15.535-15.393 15.535s-15.395-6.953-15.395-15.535c0-8.576 6.89-15.537 15.395-15.537s15.393 6.96 15.393 15.537"/><path fill="#da5928" d="M132.773 20.848c-2.937 6.828-10.803 10.002-17.567 7.1-6.755-2.922-9.86-10.816-6.9-17.643C111.23 3.47 119.1.3 125.86 3.215c6.765 2.916 9.862 10.812 6.914 17.633"/><path fill="#fff" d="M131.92 22.84c-2.464 5.73-9.07 8.387-14.743 5.944s-8.27-9.07-5.806-14.8c2.478-5.723 9.07-8.387 14.748-5.938 5.668 2.445 8.27 9.07 5.8 14.793"/><path fill="#75523a" d="M131.55 19.734c0 4.213-3.4 7.63-7.576 7.63-4.172 0-7.56-3.418-7.56-7.63 0-4.22 3.387-7.635 7.56-7.635 4.185.001 7.576 3.417 7.576 7.635"/><g fill="gray"><path d="M191.768 43.56h3.028c.505 0 .912.076 1.233.22.617.29.93.814.93 1.58 0 .4-.09.73-.25.98s-.397.46-.694.617c.258.104.455.244.592.418.127.168.207.45.217.842l.035.893c.008.256.023.44.063.572l.3.408v.148H196.1l-.074-.22c-.02-.094-.025-.27-.037-.527l-.063-1.12c-.017-.438-.17-.725-.466-.875-.166-.082-.438-.123-.795-.123h-2.002v2.863h-.893V43.56zm2.93 3.06c.416 0 .736-.086.984-.254.235-.176.355-.482.355-.922 0-.475-.174-.8-.502-.97-.182-.1-.426-.14-.727-.14h-2.15v2.283h2.04z"/><path d="M194.26 41.473a5.51 5.51 0 0 0-5.505 5.506c0 3.045 2.47 5.504 5.505 5.504 3.043 0 5.512-2.46 5.512-5.504a5.51 5.51 0 0 0-5.512-5.506m0 10.297a4.79 4.79 0 0 1-4.783-4.791c0-2.64 2.143-4.785 4.783-4.785 2.652 0 4.8 2.146 4.8 4.785 0 2.644-2.147 4.79-4.8 4.79z"/></g><path d="M18.384 58.355c-.42-2.115-1.13-3.406-2.104-3.86-.523-.232-2.07-.346-4.65-.346v16.64c0 1.2.213 1.975.636 2.303s1.27.504 2.542.537v.877H4.935v-.877c1.006-.033 1.704-.143 2.096-.336.65-.3.98-.87.98-1.723V54.15h-.294c-2.42 0-3.896.135-4.452.393-.92.455-1.565 1.73-1.958 3.814H.23l.247-5.873h18.738l.244 5.873h-1.074zM28.7 53.95c-1.142 0-1.716.3-1.716.887v8.123c5 0 7.495-1.55 7.495-4.646 0-2.907-1.925-4.364-5.78-4.364m8.176 20.555l-8.228-10.08h-1.665v4.652c.036 2.3.233 3.643.587 3.988.368.342 1.16.53 2.4.563v.877h-9.347v-.877c1.825 0 2.742-.68 2.742-2.06V55.426c0-.883-.272-1.453-.832-1.717l-1.9-.396v-.83h9.74c1.955 0 3.67.396 5.136 1.185 1.864.976 2.785 2.358 2.785 4.155 0 3.23-1.934 5.265-5.818 6.117l5.432 6.7 1.716 2.06c.65.595 1.434.896 2.35.93v.877l-5.087-.002zm5.97-.001v-.877c1.146 0 1.903-.117 2.298-.336.58-.3.9-.97.9-2.008v-15.62c0-.98-.318-1.625-.937-1.955-.327-.164-1.08-.293-2.25-.396v-.83h9.933v.83c-1.166.076-1.94.2-2.298.396-.588.33-.882.977-.882 1.955v15.62c0 1.002.294 1.668.882 2.008.393.193 1.155.303 2.298.336v.877h-9.933zM62.188 53.95c-1.18 0-1.768.313-1.768.938v16.88c0 .62.207 1 .633 1.182.267.093.756.132 1.47.093l1.325-.05c2.708-.133 4.8-1.028 6.266-2.696 1.468-1.653 2.2-3.854 2.2-6.603.002-3.192-.9-5.612-2.664-7.266s-4.266-2.477-7.46-2.477m1.903 20.555H53.917v-.877c.975-.033 1.66-.143 2.053-.336.555-.34.832-.936.832-1.82V55.426c0-.883-.287-1.453-.882-1.717-.17-.098-.84-.227-2.003-.396v-.83h9.74c3.7 0 6.68 1.017 8.898 3.04s3.328 4.875 3.328 8.566c.002 3.2-1.187 5.756-3.57 7.678-2.216 1.828-4.963 2.738-8.222 2.738zm27.264-.002v-.877c1.137-.033 1.905-.2 2.294-.514.4-.313.588-1.004.588-2.08v-6.898h-9.694v7.148c0 .94.266 1.574.783 1.902.43.264 1.148.408 2.16.44v.877H78.04v-.877c1 0 1.7-.13 2.104-.394.52-.358.777-1.043.777-2.05V55.62c0-.9-.257-1.527-.777-1.86-.296-.13-1-.275-2.104-.445v-.83h9.447v.83c-1.144.14-1.845.28-2.104.445-.56.3-.837.916-.837 1.86v6.8h9.694v-6.016c0-1.277-.132-2.057-.415-2.354-.28-.3-1.106-.535-2.467-.736v-.83h9.442v.83c-1.245.166-2.007.358-2.296.588-.427.332-.65 1.05-.65 2.154v14.98c0 1.047.223 1.73.65 2.055.416.328 1.185.506 2.296.54v.877h-9.443zm24.123-7.14V63.94l-.053-2.006c-1.826 0-3.523.487-5.1 1.47-1.826 1.133-2.742 2.596-2.742 4.357 0 1.04.262 1.985.78 2.836.596 1.012 1.354 1.514 2.3 1.514 1.826 0 3.08-.344 3.768-1.03.7-.68 1.03-1.918 1.03-3.713m7.586 5.2c-1.5 1.63-2.918 2.445-4.258 2.445-2.094 0-3.184-1.193-3.28-3.576-2.684 2.383-5.04 3.576-7.1 3.576-1.53 0-2.78-.566-3.746-1.7-.957-1.125-1.44-2.486-1.44-4.1 0-2.4 1.552-4.5 4.646-6.26 2.645-1.502 5.153-2.254 7.54-2.254l.05-3.43c0-2.732-1.24-4.105-3.723-4.105a4.46 4.46 0 0 0-2.248.588c-.818.455-1.22 1.06-1.22 1.8 0 .23.032.545.116.955.078.406.13.73.13.955 0 .56-.23 1.043-.67 1.47s-.952.63-1.54.63-1.094-.196-1.496-.605-.6-.902-.6-1.492c0-1.76.936-3.146 2.8-4.164 1.568-.873 3.295-1.318 5.2-1.318 4.824 0 7.242 2.305 7.242 6.9V69.9c0 1.53.482 2.303 1.467 2.303.686-.002 1.406-.33 2.156-.98v1.322h.003zm14.154-5.203V63.94l-.057-2.006c-1.828 0-3.523.487-5.096 1.47-1.822 1.133-2.734 2.596-2.734 4.357 0 1.04.258 1.985.787 2.836.584 1.012 1.355 1.514 2.295 1.514 1.826 0 3.082-.344 3.766-1.03.7-.68 1.04-1.918 1.04-3.713m7.576 5.2c-1.5 1.63-2.922 2.445-4.258 2.445-2.084 0-3.18-1.193-3.28-3.576-2.678 2.383-5.035 3.576-7.094 3.576-1.535 0-2.78-.566-3.74-1.7s-1.443-2.486-1.443-4.1c0-2.4 1.547-4.5 4.645-6.26 2.645-1.502 5.158-2.254 7.54-2.254l.056-3.43c0-2.732-1.245-4.105-3.722-4.105a4.46 4.46 0 0 0-2.256.588c-.82.455-1.227 1.06-1.227 1.8 0 .23.04.545.123.955s.133.73.133.955c0 .56-.23 1.043-.674 1.47a2.12 2.12 0 0 1-1.537.629c-.584 0-1.1-.196-1.492-.605a2.03 2.03 0 0 1-.617-1.492c0-1.76.936-3.146 2.8-4.164 1.574-.873 3.304-1.318 5.2-1.318 4.826 0 7.246 2.305 7.246 6.9l.002 11.014c0 1.53.482 2.303 1.47 2.303.684-.002 1.4-.33 2.148-.98v1.32zm18.8-14.213c-.423-2.115-1.12-3.406-2.104-3.86-.52-.232-2.063-.346-4.643-.346v16.64c0 1.2.217 1.975.635 2.303.426.326 1.27.504 2.547.537v.877h-9.888v-.877c1-.033 1.702-.143 2.103-.336.656-.3.97-.87.97-1.723V54.15h-.28c-2.416 0-3.908.135-4.455.393-.918.455-1.56 1.73-1.96 3.814h-1.076l.244-5.873h18.744l.248 5.873h-1.084zM177.23 75c-2.54 0-4.574-.637-6.117-1.9-1.655-1.37-2.487-3.314-2.487-5.82V55.426c0-.848-.282-1.426-.836-1.72-.294-.133-.98-.256-2.058-.395v-.83h9.6v.83c-1.276.166-2.058.358-2.358.588-.453.33-.683 1.082-.683 2.256v10.96c0 4.08 1.843 6.117 5.532 6.117 4.05 0 6.068-1.992 6.068-5.965V56.9c0-1.303-.203-2.193-.6-2.668-.414-.473-1.23-.77-2.48-.908v-.83h7.938v.83l-1.426.3c-.55.168-.935.4-1.17.7-.33.418-.494 1.286-.494 2.6v10.23c0 2.547-.76 4.494-2.27 5.848-1.523 1.356-3.566 2.032-6.15 2.032" fill="#75523a"/></svg>